<svg width="28" height="28" viewBox="0 0 28 28" fill="none" xmlns="http://www.w3.org/2000/svg">
<path d="M19.4024 15.3195C19.3365 15.3872 19.0876 15.6765 18.8557 15.9145C17.4964 17.4113 13.9504 19.8613 12.0944 20.6092C11.8126 20.7293 11.0999 20.9837 10.7192 21C10.3544 21 10.0066 20.916 9.6747 20.7457C9.261 20.5077 8.92913 20.1332 8.74728 19.691C8.63022 19.3842 8.44837 18.466 8.44837 18.4497C8.26652 17.4452 8.1665 15.813 8.1665 14.0093C8.1665 12.2908 8.26652 10.7252 8.41541 9.7055C8.43246 9.68917 8.6143 8.54817 8.8132 8.15733C9.17803 7.44333 9.89065 7 10.6533 7H10.7192C11.2159 7.0175 12.2604 7.46083 12.2604 7.47717C14.0163 8.22617 17.4805 10.556 18.8728 12.1042C18.8728 12.1042 19.2649 12.502 19.4354 12.7505C19.7013 13.1075 19.8332 13.5497 19.8332 13.9918C19.8332 14.4853 19.6843 14.945 19.4024 15.3195Z" fill="#FB9C46"/>
</svg>
