<svg width="42" height="40" viewBox="0 0 42 40" fill="none" xmlns="http://www.w3.org/2000/svg">
<g clip-path="url(#clip0_9_1996)">
<path d="M28.9585 20.5208C28.9585 20.0208 28.896 19.6458 28.8335 19.2395H21.4585V21.8958H25.8335C25.6772 23.052 24.521 25.2395 21.4585 25.2395C18.8022 25.2395 16.646 23.052 16.646 20.3333C16.646 15.9895 21.771 13.9895 24.521 16.6458L26.646 14.6145C25.3022 13.3645 23.521 12.5833 21.4585 12.5833C17.146 12.5833 13.7085 16.052 13.7085 20.3333C13.7085 24.6458 17.146 28.0833 21.4585 28.0833C25.9272 28.0833 28.9585 24.9583 28.9585 20.5208Z" fill="white"/>
<rect opacity="0.1" width="42" height="40" rx="20" fill="#FF922F"/>
</g>
<defs>
<clipPath id="clip0_9_1996">
<rect width="42" height="40" fill="white"/>
</clipPath>
</defs>
</svg>
