<svg width="40" height="40" viewBox="0 0 40 40" fill="none" xmlns="http://www.w3.org/2000/svg">
<g clip-path="url(#clip0_9_2006)">
<rect opacity="0.1" width="40" height="40" rx="20" fill="#FF922F"/>
<path d="M20.3335 16.7395C18.3335 16.7395 16.7397 18.3645 16.7397 20.3333C16.7397 22.3333 18.3335 23.927 20.3335 23.927C22.3022 23.927 23.9272 22.3333 23.9272 20.3333C23.9272 18.3645 22.3022 16.7395 20.3335 16.7395ZM20.3335 22.677C19.0522 22.677 17.9897 21.6458 17.9897 20.3333C17.9897 19.052 19.021 18.0208 20.3335 18.0208C21.6147 18.0208 22.646 19.052 22.646 20.3333C22.646 21.6458 21.6147 22.677 20.3335 22.677ZM24.896 16.6145C24.896 16.1458 24.521 15.7708 24.0522 15.7708C23.5835 15.7708 23.2085 16.1458 23.2085 16.6145C23.2085 17.0833 23.5835 17.4583 24.0522 17.4583C24.521 17.4583 24.896 17.0833 24.896 16.6145ZM27.271 17.4583C27.2085 16.3333 26.9585 15.3333 26.146 14.5208C25.3335 13.7083 24.3335 13.4583 23.2085 13.3958C22.0522 13.3333 18.5835 13.3333 17.4272 13.3958C16.3022 13.4583 15.3335 13.7083 14.4897 14.5208C13.6772 15.3333 13.4272 16.3333 13.3647 17.4583C13.3022 18.6145 13.3022 22.0833 13.3647 23.2395C13.4272 24.3645 13.6772 25.3333 14.4897 26.177C15.3335 26.9895 16.3022 27.2395 17.4272 27.302C18.5835 27.3645 22.0522 27.3645 23.2085 27.302C24.3335 27.2395 25.3335 26.9895 26.146 26.177C26.9585 25.3333 27.2085 24.3645 27.271 23.2395C27.3335 22.0833 27.3335 18.6145 27.271 17.4583ZM25.771 24.4583C25.5522 25.0833 25.0522 25.552 24.4585 25.802C23.521 26.177 21.3335 26.0833 20.3335 26.0833C19.3022 26.0833 17.1147 26.177 16.2085 25.802C15.5835 25.552 15.1147 25.0833 14.8647 24.4583C14.4897 23.552 14.5835 21.3645 14.5835 20.3333C14.5835 19.3333 14.4897 17.1458 14.8647 16.2083C15.1147 15.6145 15.5835 15.1458 16.2085 14.8958C17.1147 14.5208 19.3022 14.6145 20.3335 14.6145C21.3335 14.6145 23.521 14.5208 24.4585 14.8958C25.0522 15.1145 25.521 15.6145 25.771 16.2083C26.146 17.1458 26.0522 19.3333 26.0522 20.3333C26.0522 21.3645 26.146 23.552 25.771 24.4583Z" fill="white"/>
</g>
<defs>
<clipPath id="clip0_9_2006">
<rect width="40" height="40" fill="white"/>
</clipPath>
</defs>
</svg>
