<svg width="40" height="40" viewBox="0 0 40 40" fill="none" xmlns="http://www.w3.org/2000/svg">
<g clip-path="url(#clip0_9_2011)">
<rect opacity="0.1" width="40" height="40" rx="20" fill="#FF922F"/>
<path d="M26.3335 13.3333H14.3022C13.771 13.3333 13.3335 13.802 13.3335 14.3645V26.3333C13.3335 26.8958 13.771 27.3333 14.3022 27.3333H26.3335C26.8647 27.3333 27.3335 26.8958 27.3335 26.3333V14.3645C27.3335 13.802 26.8647 13.3333 26.3335 13.3333ZM17.5522 25.3333H15.4897V18.677H17.5522V25.3333ZM16.521 17.7395C15.8335 17.7395 15.3022 17.2083 15.3022 16.552C15.3022 15.8958 15.8335 15.3333 16.521 15.3333C17.1772 15.3333 17.7085 15.8958 17.7085 16.552C17.7085 17.2083 17.1772 17.7395 16.521 17.7395ZM25.3335 25.3333H23.2397V22.0833C23.2397 21.3333 23.2397 20.3333 22.1772 20.3333C21.0835 20.3333 20.9272 21.177 20.9272 22.052V25.3333H18.8647V18.677H20.8335V19.5833H20.8647C21.146 19.052 21.8335 18.4895 22.8335 18.4895C24.9272 18.4895 25.3335 19.8958 25.3335 21.677V25.3333Z" fill="white"/>
</g>
<defs>
<clipPath id="clip0_9_2011">
<rect width="40" height="40" fill="white"/>
</clipPath>
</defs>
</svg>
