<svg width="51" height="51" viewBox="0 0 51 51" fill="none" xmlns="http://www.w3.org/2000/svg">
<path d="M25.5 5.25C36.6596 5.25 45.75 14.3357 45.75 25.5127C45.7498 36.6641 36.6602 45.75 25.5 45.75C14.3398 45.75 5.25021 36.6641 5.25 25.5127C5.25 14.3357 14.3404 5.25 25.5 5.25ZM23.0801 16.0635C22.4712 16.0635 21.8874 16.2035 21.3408 16.4766L21.3193 16.4873L21.2988 16.498C20.5988 16.8898 20.0328 17.5079 19.7178 18.252L19.7119 18.2656L19.707 18.2793C19.6037 18.5449 19.4964 18.9896 19.4258 19.2988C19.387 19.4684 19.3526 19.6263 19.3281 19.7441C19.3159 19.803 19.3053 19.8537 19.2979 19.8916C19.2943 19.91 19.291 19.9283 19.2881 19.9443C19.287 19.9504 19.2858 19.9596 19.2842 19.9697C19.0432 21.2715 18.9209 23.3064 18.9209 25.4902C18.9209 27.5925 19.0448 29.5297 19.2393 30.8252L19.2881 31.1514L19.3125 31.1758C19.339 31.3076 19.3741 31.4769 19.4141 31.6572C19.461 31.8691 19.518 32.108 19.582 32.3311C19.6415 32.5382 19.7236 32.7933 19.834 33.0049L19.835 33.0068C20.4562 34.192 21.6768 34.9365 22.998 34.9365H23.0967L23.1133 34.9355C23.5914 34.9195 24.2014 34.7294 24.5908 34.5947C24.8083 34.5195 25.0059 34.4434 25.1523 34.3838C25.2246 34.3544 25.2909 34.3267 25.3438 34.3027C25.3679 34.2918 25.4021 34.2759 25.4365 34.2578C25.4385 34.2568 25.4404 34.2545 25.4434 34.2529C26.6155 33.7556 28.2584 32.8066 29.8066 31.7656C31.1865 30.8379 32.5691 29.7871 33.5244 28.8555L33.9062 28.4648L34.001 28.3701C34.2653 28.1059 34.5829 27.7198 34.668 27.6064C35.1362 26.9892 35.3612 26.2422 35.3613 25.5127C35.3613 24.7055 35.1094 23.9341 34.6191 23.2998L34.5801 23.249L34.5342 23.2041L34.5166 23.1846C34.5028 23.1699 34.4848 23.1507 34.4629 23.127C34.4227 23.0833 34.3611 23.0164 34.3008 22.9512C34.1756 22.8156 34.0156 22.6444 33.8574 22.4863H33.8564C32.9334 21.5045 31.3556 20.2763 29.7568 19.1973C28.1467 18.1105 26.4077 17.1011 25.1572 16.6084H25.1582C24.9565 16.5266 24.6198 16.4036 24.2666 16.2969C23.9387 16.1978 23.4952 16.0806 23.123 16.0645L23.1016 16.0635H23.0801Z" stroke="white" stroke-width="2"/>
</svg>
