<svg width="42" height="40" viewBox="0 0 42 40" fill="none" xmlns="http://www.w3.org/2000/svg">
<g clip-path="url(#clip0_9_2001)">
<rect opacity="0.1" width="42" height="40" rx="20" fill="#FF922F"/>
<path d="M27.6772 17.0833C28.3022 16.6145 28.8647 16.052 29.3022 15.3958C28.7397 15.6458 28.0835 15.8333 27.4272 15.8958C28.1147 15.4895 28.6147 14.8645 28.8647 14.0833C28.2397 14.4583 27.521 14.7395 26.8022 14.8958C26.1772 14.2395 25.3335 13.8645 24.396 13.8645C22.5835 13.8645 21.1147 15.3333 21.1147 17.1458C21.1147 17.3958 21.146 17.6458 21.2085 17.8958C18.4897 17.7395 16.0522 16.427 14.4272 14.4583C14.146 14.927 13.9897 15.4895 13.9897 16.1145C13.9897 17.2395 14.5522 18.2395 15.4585 18.8333C14.9272 18.802 14.396 18.677 13.9585 18.427V18.4583C13.9585 20.052 15.0835 21.3645 16.5835 21.677C16.3335 21.7395 16.021 21.802 15.7397 21.802C15.521 21.802 15.3335 21.7708 15.1147 21.7395C15.521 23.052 16.7397 23.9895 18.1772 24.0208C17.0522 24.8958 15.646 25.427 14.1147 25.427C13.8335 25.427 13.5835 25.3958 13.3335 25.3645C14.771 26.302 16.4897 26.8333 18.3647 26.8333C24.396 26.8333 27.6772 21.8645 27.6772 17.5208C27.6772 17.3645 27.6772 17.2395 27.6772 17.0833Z" fill="white"/>
</g>
<defs>
<clipPath id="clip0_9_2001">
<rect width="42" height="40" fill="white"/>
</clipPath>
</defs>
</svg>
